<?xml version="1.0" standalone="no"?><!DOCTYPE svg PUBLIC "-//W3C//DTD SVG 1.1//EN" "http://www.w3.org/Graphics/SVG/1.1/DTD/svg11.dtd"><svg class="icon" height="512" viewBox="0 0 1025 1024" version="1.1" xmlns="http://www.w3.org/2000/svg"><path d="M996.078867 744.533333c-1.301333-1.344-2.666667-2.453333-4.074667-3.584l-151.082667-119.701333c-16.256-15.104-37.248-23.36-59.498667-23.36-23.381333 0-45.333333 9.088-61.781333 25.557333-2.24 2.176-4.202667 4.586667-5.909333 7.210667l-40.042667 60.181333c-22.08-5.909333-83.925333-38.976-192.832-147.861333-109.76-109.76-142.293333-171.029333-147.925333-192.789333l60.288-40.106667c2.581333-1.728 5.034667-3.754667 7.232-5.909333 33.258667-33.301333 34.005333-87.04 2.176-121.237333l-119.68-151.125333c-1.130667-1.365333-2.282667-2.752-3.562667-4.010667C261.678867 10.133333 236.910867 0 211.353534 0 188.974867 0 168.409534 7.914667 153.198867 22.4L31.300201 128.490667C30.489534 129.237333 29.721534 129.941333 28.910867 130.730667c-59.456 59.477333-12.458667 201.664 10.538667 260.117333C88.601534 515.84 173.145534 642.133333 277.486867 746.453333 459.673534 928.682667 680.921534 1024 805.209534 1024c39.04 0 68.586667-9.706667 87.872-29.077333 0.746667-0.746667 1.493333-1.578667 2.218667-2.368l106.048-121.877333C1033.412201 837.013333 1031.214867 779.712 996.078867 744.533333zM811.716201 950.208c-74.005333 26.389333-308.885333-80.362667-481.365333-252.864C122.734867 489.728 49.177534 247.68 73.988201 189.205333 89.774867 152 212.996201 74.666667 212.996201 74.666667l130.837333 159.168c0 0-69.312 58.666667-82.602667 71.978667-43.178667 43.178667 51.242667 179.392 171.306667 299.434667 116.992 117.056 248.362667 179.669333 283.52 158.954667 26.794667-15.786667 67.712-84.245333 67.712-84.245333l165.568 126.805333C949.337534 806.741333 852.889534 935.530667 811.716201 950.208zM343.833534 679.936" /></svg>